M48
;Layer_Color=9474304
;FILE_FORMAT=2:4
INCH
;TYPE=PLATED
T1F00S00C0.0280
T2F00S00C0.0354
T3F00S00C0.0380
%
T01
X020200Y046800
T02
X018600Y038000
X019600
T03
X011250Y034800
Y035800
Y036800
Y037800
Y038800
Y039800
Y040800
Y041800
Y042800
Y043800
Y044800
Y045800
Y046800
X012250Y034800
X013250
X014250
X015250
X016250
X017250
Y035800
Y036800
Y037800
Y038800
Y039800
Y040800
Y041800
Y042800
Y043800
Y044800
Y045800
Y046800
Y047800
X011250
M30
