G04 Layer_Color=65535*
%FSAX24Y24*%
%MOIN*%
G70*
G01*
G75*
%ADD14C,0.0100*%
%ADD21C,0.0079*%
%ADD22C,0.0080*%
D14*
X018200Y038800D02*
Y039400D01*
X018500D01*
X018600Y039300D01*
Y039100D01*
X018500Y039000D01*
X018200D01*
X018800Y038800D02*
X019000D01*
X018900D01*
Y039400D01*
X018800Y039300D01*
X018690Y047390D02*
Y047790D01*
X018590Y047890D01*
X018390D01*
X018290Y047790D01*
Y047390D01*
X018390Y047290D01*
X018590D01*
X018490Y047490D02*
X018690Y047290D01*
X018590D02*
X018690Y047390D01*
X018890Y047290D02*
X019090D01*
X018990D01*
Y047890D01*
X018890Y047790D01*
X020467Y040133D02*
X020400Y040200D01*
X020267D01*
X020200Y040133D01*
Y039867D01*
X020267Y039800D01*
X020400D01*
X020467Y039867D01*
X020600Y039800D02*
X020733D01*
X020667D01*
Y040200D01*
X020600Y040133D01*
X020200Y041600D02*
Y042000D01*
X020400D01*
X020467Y041933D01*
Y041800D01*
X020400Y041733D01*
X020200D01*
X020333D02*
X020467Y041600D01*
X020600D02*
X020733D01*
X020667D01*
Y042000D01*
X020600Y041933D01*
X019400Y045100D02*
Y045700D01*
X019700D01*
X019800Y045600D01*
Y045400D01*
X019700Y045300D01*
X019400D01*
X019600D02*
X019800Y045100D01*
X020400D02*
X020000D01*
X020400Y045500D01*
Y045600D01*
X020300Y045700D01*
X020100D01*
X020000Y045600D01*
X018100Y048700D02*
Y049300D01*
X018400D01*
X018500Y049200D01*
Y049000D01*
X018400Y048900D01*
X018100D01*
X018300D02*
X018500Y048700D01*
X018700Y049200D02*
X018800Y049300D01*
X019000D01*
X019100Y049200D01*
Y049100D01*
X019000Y049000D01*
X018900D01*
X019000D01*
X019100Y048900D01*
Y048800D01*
X019000Y048700D01*
X018800D01*
X018700Y048800D01*
X010815Y049245D02*
Y048745D01*
X010915Y048645D01*
X011115D01*
X011215Y048745D01*
Y049245D01*
X011415Y048645D02*
X011615D01*
X011515D01*
Y049245D01*
X011415Y049145D01*
X018380Y044870D02*
Y044370D01*
X018480Y044270D01*
X018680D01*
X018780Y044370D01*
Y044870D01*
X019380Y044270D02*
X018980D01*
X019380Y044670D01*
Y044770D01*
X019280Y044870D01*
X019080D01*
X018980Y044770D01*
D21*
X018100Y037500D02*
Y038500D01*
X020100D01*
Y037500D02*
Y038500D01*
X018100Y037500D02*
X020100D01*
X020362Y039180D02*
Y039220D01*
X020638Y039180D02*
Y039220D01*
X020638Y040980D02*
Y041020D01*
X020362Y040980D02*
Y041020D01*
X018016Y040422D02*
Y043178D01*
Y040422D02*
X019984D01*
Y043178D01*
X018016D02*
X019984D01*
X018680Y045538D02*
X018720D01*
X018680Y045262D02*
X018720D01*
X018580Y048438D02*
X018620D01*
X018580Y048162D02*
X018620D01*
D22*
X018761Y045840D02*
X019080D01*
Y046080D01*
X018761Y046951D02*
X019080D01*
Y046715D02*
Y046951D01*
X013750Y047800D02*
X014750D01*
Y048300D01*
X017750D01*
Y034300D02*
Y048300D01*
X010750Y034300D02*
X017750D01*
X010750D02*
Y048300D01*
X013750D01*
Y047800D02*
Y048300D01*
X020000Y037150D02*
X019950Y037200D01*
X019850D01*
X019800Y037150D01*
Y036950D01*
X019850Y036900D01*
X019950D01*
X020000Y036950D01*
Y037050D01*
X019900D01*
X020100Y036900D02*
Y037200D01*
X020300Y036900D01*
Y037200D01*
X020400D02*
Y036900D01*
X020550D01*
X020600Y036950D01*
Y037150D01*
X020550Y037200D01*
X020400D01*
X018300Y037150D02*
X018250Y037200D01*
X018150D01*
X018100Y037150D01*
Y036950D01*
X018150Y036900D01*
X018250D01*
X018300Y036950D01*
Y037050D01*
X018200D01*
X018400Y036900D02*
Y037100D01*
X018500Y037200D01*
X018600Y037100D01*
Y036900D01*
Y037050D01*
X018400D01*
X018700Y037200D02*
X018900D01*
X018800D01*
Y036900D01*
X019200Y037200D02*
X019000D01*
Y036900D01*
X019200D01*
X019000Y037050D02*
X019100D01*
X020450Y037400D02*
Y037600D01*
X020350Y037500D02*
X020550D01*
X020600Y037700D02*
Y037800D01*
Y037750D01*
X020300D01*
X020350Y037700D01*
X020600Y038150D02*
Y037950D01*
X020400Y038150D01*
X020350D01*
X020300Y038100D01*
Y038000D01*
X020350Y037950D01*
X020300Y038250D02*
X020500D01*
X020600Y038350D01*
X020500Y038450D01*
X020300D01*
M02*
