G04 Layer_Physical_Order=2*
G04 Layer_Color=16711680*
%FSAX24Y24*%
%MOIN*%
G70*
G01*
G75*
%ADD14C,0.0100*%
%ADD17R,0.0591X0.0591*%
%ADD18C,0.0591*%
%ADD19C,0.0570*%
%ADD20C,0.0500*%
D14*
X019200Y045800D02*
X020200Y046800D01*
X017250Y045800D02*
X019200D01*
D17*
X019600Y038000D02*
D03*
D18*
X018600D02*
D03*
D19*
X011250Y047800D02*
D03*
Y046800D02*
D03*
Y045800D02*
D03*
Y044800D02*
D03*
Y043800D02*
D03*
Y042800D02*
D03*
Y041800D02*
D03*
Y040800D02*
D03*
Y039800D02*
D03*
Y038800D02*
D03*
Y037800D02*
D03*
Y036800D02*
D03*
Y035800D02*
D03*
Y034800D02*
D03*
X012250D02*
D03*
X013250D02*
D03*
X014250D02*
D03*
X015250D02*
D03*
X016250D02*
D03*
X017250D02*
D03*
Y035800D02*
D03*
Y036800D02*
D03*
Y037800D02*
D03*
Y038800D02*
D03*
Y039800D02*
D03*
Y040800D02*
D03*
Y041800D02*
D03*
Y042800D02*
D03*
Y043800D02*
D03*
Y044800D02*
D03*
Y045800D02*
D03*
Y046800D02*
D03*
Y047800D02*
D03*
D20*
X020200Y046800D02*
D03*
M02*
