G04 Layer_Color=8388736*
%FSAX24Y24*%
%MOIN*%
G70*
G01*
G75*
%ADD23R,0.0440X0.0400*%
%ADD24R,0.0434X0.0356*%
%ADD25R,0.0434X0.0592*%
%ADD26R,0.0356X0.0434*%
%ADD27R,0.1280X0.2480*%
%ADD28R,0.1180X0.1580*%
%ADD29R,0.0671X0.0671*%
%ADD30C,0.0671*%
%ADD31C,0.0650*%
%ADD32C,0.0580*%
D23*
X019240Y046400D02*
D03*
X018406Y046020D02*
D03*
Y046774D02*
D03*
D24*
X020500Y038924D02*
D03*
Y039476D02*
D03*
Y040724D02*
D03*
Y041276D02*
D03*
D25*
X018500Y039930D02*
D03*
X019000D02*
D03*
X019500D02*
D03*
X018500Y043670D02*
D03*
X019500D02*
D03*
D26*
X018976Y045400D02*
D03*
X018424D02*
D03*
X018876Y048300D02*
D03*
X018324D02*
D03*
D27*
X020200Y035500D02*
D03*
X018700D02*
D03*
D28*
X020250Y046750D02*
D03*
Y048550D02*
D03*
D29*
X019600Y038000D02*
D03*
D30*
X018600D02*
D03*
D31*
X011250Y047800D02*
D03*
Y046800D02*
D03*
Y045800D02*
D03*
Y044800D02*
D03*
Y043800D02*
D03*
Y042800D02*
D03*
Y041800D02*
D03*
Y040800D02*
D03*
Y039800D02*
D03*
Y038800D02*
D03*
Y037800D02*
D03*
Y036800D02*
D03*
Y035800D02*
D03*
Y034800D02*
D03*
X012250D02*
D03*
X013250D02*
D03*
X014250D02*
D03*
X015250D02*
D03*
X016250D02*
D03*
X017250D02*
D03*
Y035800D02*
D03*
Y036800D02*
D03*
Y037800D02*
D03*
Y038800D02*
D03*
Y039800D02*
D03*
Y040800D02*
D03*
Y041800D02*
D03*
Y042800D02*
D03*
Y043800D02*
D03*
Y044800D02*
D03*
Y045800D02*
D03*
Y046800D02*
D03*
Y047800D02*
D03*
D32*
X020200Y046800D02*
D03*
M02*
