G04 Layer_Color=128*
%FSAX24Y24*%
%MOIN*%
G70*
G01*
G75*
%ADD16R,0.9800X0.5900*%
G36*
X017866Y034750D02*
X018204Y034694D01*
X018421Y034620D01*
X018627Y034519D01*
X018818Y034391D01*
X018990Y034240D01*
X019141Y034068D01*
X019269Y033877D01*
X019370Y033671D01*
X019444Y033454D01*
X019489Y033229D01*
X019504Y033000D01*
X019489Y032771D01*
X019444Y032546D01*
X019370Y032329D01*
X019269Y032123D01*
X019141Y031932D01*
X018990Y031760D01*
X018818Y031609D01*
X018627Y031481D01*
X018421Y031380D01*
X018204Y031306D01*
X017880Y031251D01*
X017770Y031250D01*
X012250Y031250D01*
X012135D01*
X011796Y031306D01*
X011579Y031380D01*
X011373Y031481D01*
X011182Y031609D01*
X011010Y031760D01*
X010859Y031932D01*
X010731Y032123D01*
X010630Y032329D01*
X010556Y032546D01*
X010500Y032885D01*
Y033000D01*
X010500Y033000D01*
X010500Y033057D01*
X010511Y033229D01*
X010556Y033454D01*
X010630Y033671D01*
X010731Y033877D01*
X010859Y034068D01*
X011010Y034240D01*
X011182Y034391D01*
X011373Y034519D01*
X011579Y034620D01*
X011796Y034694D01*
X012135Y034750D01*
X012250D01*
X012250Y034750D01*
X017752Y034750D01*
X017866Y034750D01*
D02*
G37*
G36*
X015229Y044239D02*
X015454Y044194D01*
X015671Y044120D01*
X015877Y044019D01*
X016068Y043891D01*
X016240Y043740D01*
X016391Y043568D01*
X016519Y043377D01*
X016620Y043171D01*
X016694Y042954D01*
X016750Y042615D01*
Y042500D01*
X016750Y042500D01*
X016750Y036998D01*
X016750Y036884D01*
X016694Y036546D01*
X016620Y036329D01*
X016519Y036123D01*
X016391Y035932D01*
X016240Y035760D01*
X016068Y035609D01*
X015877Y035481D01*
X015671Y035380D01*
X015454Y035306D01*
X015229Y035261D01*
X015000Y035246D01*
X014771Y035261D01*
X014546Y035306D01*
X014329Y035380D01*
X014123Y035481D01*
X013932Y035609D01*
X013760Y035760D01*
X013609Y035932D01*
X013481Y036123D01*
X013380Y036329D01*
X013306Y036546D01*
X013251Y036870D01*
X013250Y036980D01*
X013250Y042500D01*
Y042615D01*
X013306Y042954D01*
X013380Y043171D01*
X013481Y043377D01*
X013609Y043568D01*
X013760Y043740D01*
X013932Y043891D01*
X014123Y044019D01*
X014329Y044120D01*
X014546Y044194D01*
X014885Y044250D01*
X015000D01*
X015000Y044250D01*
X015057Y044250D01*
X015229Y044239D01*
D02*
G37*
G36*
X017866Y048187D02*
X018204Y048131D01*
X018421Y048057D01*
X018627Y047956D01*
X018818Y047828D01*
X018990Y047677D01*
X019141Y047505D01*
X019269Y047314D01*
X019370Y047108D01*
X019444Y046891D01*
X019489Y046666D01*
X019504Y046437D01*
X019489Y046208D01*
X019444Y045983D01*
X019370Y045766D01*
X019269Y045560D01*
X019141Y045369D01*
X018990Y045197D01*
X018818Y045046D01*
X018627Y044918D01*
X018421Y044817D01*
X018204Y044743D01*
X017880Y044688D01*
X017770Y044687D01*
X012250Y044687D01*
X012135D01*
X011796Y044743D01*
X011579Y044817D01*
X011373Y044918D01*
X011182Y045046D01*
X011010Y045197D01*
X010859Y045369D01*
X010731Y045560D01*
X010630Y045766D01*
X010556Y045983D01*
X010500Y046322D01*
Y046437D01*
X010500Y046437D01*
X010500Y046494D01*
X010511Y046666D01*
X010556Y046891D01*
X010630Y047108D01*
X010731Y047314D01*
X010859Y047505D01*
X011010Y047677D01*
X011182Y047828D01*
X011373Y047956D01*
X011579Y048057D01*
X011796Y048131D01*
X012135Y048187D01*
X012250D01*
X012250Y048187D01*
X017752Y048187D01*
X017866Y048187D01*
D02*
G37*
D16*
X015000Y017450D02*
D03*
M02*
