G04 Layer_Color=65535*
%FSAX24Y24*%
%MOIN*%
G70*
G01*
G75*
%ADD17C,0.0100*%
%ADD18C,0.0080*%
%ADD19R,0.4000X0.0400*%
D17*
X019528Y044500D02*
G03*
X019528Y044500I-004528J000000D01*
G01*
Y035000D02*
G03*
X019528Y035000I-004528J000000D01*
G01*
D18*
X014150Y022000D02*
G03*
X014500Y022350I000008J000342D01*
G01*
X010500D02*
G03*
X010850Y022000I000342J-000008D01*
G01*
X019150D02*
G03*
X019500Y022350I000008J000342D01*
G01*
X015500D02*
G03*
X015850Y022000I000342J-000008D01*
G01*
X014000Y022000D02*
X014150D01*
X010850D02*
X011000D01*
X014500Y023300D02*
Y023700D01*
X010500D02*
X014500D01*
X010500Y023300D02*
Y023700D01*
Y023300D02*
X014500D01*
Y022350D02*
Y023300D01*
X010500Y022350D02*
Y023300D01*
X019000Y022000D02*
X019150D01*
X015850D02*
X016000D01*
X019500Y023300D02*
Y023700D01*
X015500D02*
X019500D01*
X015500Y023300D02*
Y023700D01*
Y023300D02*
X019500D01*
Y022350D02*
Y023300D01*
X015500Y022350D02*
Y023300D01*
D19*
X012500Y023500D02*
D03*
X017500D02*
D03*
M02*
